<svg width="256" height="256" xmlns="http://www.w3.org/2000/svg" xmlns:xlink="http://www.w3.org/1999/xlink"><defs><linearGradient x1="0%" y1="0%" x2="102%" y2="101%" id="d"><stop stop-color="#3023AE" offset="0%"/><stop stop-color="#C96DD8" offset="100%"/></linearGradient><path d="M0 12.995C0 5.818 5.827 0 13.01 0h179.765c7.185 0 13.01 5.817 13.01 12.995v85.862c0 7.177-5.828 12.995-13.01 12.995H13.01C5.824 111.852 0 106.035 0 98.857V12.995zm88.715 18.688v59.945l48.743-29.972-48.743-29.973z" id="a"/><mask id="e" x="0" y="0" width="205.785" height="111.852" fill="#fff"><use xlink:href="#a"/></mask><path d="M85.017 188.031c-45.4-6.88-80.194-46.113-80.194-93.48C4.823 42.33 47.111 0 99.275 0s94.452 42.332 94.452 94.55c0 52.22-42.288 94.552-94.452 94.552-4.384 0-8.698-.3-12.923-.878l64.046-33.243-72.008-33.893 6.627 66.943zm15.062-79.398c7.325 0 13.263-5.945 13.263-13.278 0-7.332-5.938-13.277-13.263-13.277s-13.264 5.945-13.264 13.277c0 7.333 5.939 13.278 13.264 13.278z" id="b"/><mask id="f" x="0" y="0" width="188.904" height="189.102" fill="#fff"><use xlink:href="#b"/></mask><path d="M144.733 11.65a93.755 93.755 0 0 0-25.031-9.433l-17.158 80.09c1.224.23 2.388.629 3.469 1.17l38.72-71.826z" id="c"/><mask id="g" x="0" y="0" width="42.189" height="81.261" fill="#fff"><use xlink:href="#c"/></mask></defs><g fill="none" fill-rule="evenodd"><path fill-opacity=".7" fill="url(#d)" d="M0 0h256v256H0z"/><use stroke="#FFF" mask="url(#e)" stroke-width="10" fill="#FFF" xlink:href="#a" transform="translate(26 119.148)"/><g transform="translate(29.215 25)" stroke="#FFF"><use mask="url(#f)" stroke-width="16" xlink:href="#b"/><use mask="url(#g)" stroke-width="10" fill="#FFF" xlink:href="#c"/></g></g></svg>